<svg width="17" height="17" viewBox="0 0 17 17" fill="none" xmlns="http://www.w3.org/2000/svg">
<g clip-path="url(#clip0)">
<path fill-rule="evenodd" clip-rule="evenodd" d="M0.480469 8.3708C0.480469 12.4773 3.46292 15.892 7.36358 16.5844V10.6188H5.29865V8.32468H7.36358V6.48895C7.36358 4.42402 8.69409 3.27729 10.5759 3.27729C11.172 3.27729 11.8149 3.36884 12.411 3.46038V5.57143H11.3558C10.346 5.57143 10.1168 6.07597 10.1168 6.71885V8.32468H12.3194L11.9526 10.6188H10.1168V16.5844C14.0175 15.892 16.9999 12.478 16.9999 8.3708C16.9999 3.80247 13.2831 0.0649414 8.74021 0.0649414C4.19735 0.0649414 0.480469 3.80247 0.480469 8.3708Z" fill="#5AC8FA"/>
</g>
<defs>
<clipPath id="clip0">
<rect width="16.5195" height="16.5195" fill="white" transform="translate(0.480469 0.0649414)"/>
</clipPath>
</defs>
</svg>
