<svg width="21" height="21" viewBox="0 0 21 21" fill="none" xmlns="http://www.w3.org/2000/svg">
<path d="M10.3248 7.63682C8.84466 7.63682 7.63675 8.84472 7.63675 10.3249C7.63675 11.805 8.84466 13.0129 10.3248 13.0129C11.8049 13.0129 13.0128 11.805 13.0128 10.3249C13.0128 8.84472 11.8049 7.63682 10.3248 7.63682ZM18.3869 10.3249C18.3869 9.21173 18.397 8.10869 18.3345 6.99757C18.272 5.70699 17.9776 4.5616 17.0338 3.61786C16.0881 2.6721 14.9447 2.3797 13.6541 2.31719C12.541 2.25468 11.4379 2.26476 10.3268 2.26476C9.21368 2.26476 8.11064 2.25468 6.99953 2.31719C5.70894 2.3797 4.56355 2.67412 3.61981 3.61786C2.67405 4.56361 2.38166 5.70699 2.31914 6.99757C2.25663 8.1107 2.26671 9.21375 2.26671 10.3249C2.26671 11.436 2.25663 12.541 2.31914 13.6521C2.38166 14.9427 2.67607 16.0881 3.61981 17.0319C4.56557 17.9776 5.70894 18.27 6.99953 18.3325C8.11265 18.395 9.2157 18.385 10.3268 18.385C11.4399 18.385 12.543 18.395 13.6541 18.3325C14.9447 18.27 16.0901 17.9756 17.0338 17.0319C17.9796 16.0861 18.272 14.9427 18.3345 13.6521C18.399 12.541 18.3869 11.438 18.3869 10.3249ZM10.3248 14.4608C8.03603 14.4608 6.18888 12.6136 6.18888 10.3249C6.18888 8.03609 8.03603 6.18894 10.3248 6.18894C12.6136 6.18894 14.4607 8.03609 14.4607 10.3249C14.4607 12.6136 12.6136 14.4608 10.3248 14.4608ZM14.6301 6.98547C14.0957 6.98547 13.6642 6.55394 13.6642 6.01955C13.6642 5.48517 14.0957 5.05363 14.6301 5.05363C15.1645 5.05363 15.596 5.48517 15.596 6.01955C15.5962 6.14644 15.5713 6.27212 15.5228 6.38938C15.4743 6.50665 15.4032 6.61319 15.3135 6.70292C15.2237 6.79264 15.1172 6.86379 14.9999 6.91227C14.8827 6.96076 14.757 6.98563 14.6301 6.98547Z" fill="#5AC8FA"/>
</svg>
