<svg width="38" height="38" viewBox="0 0 38 38" fill="none" xmlns="http://www.w3.org/2000/svg">
<path d="M19 35.625C14.5908 35.625 10.3621 33.8734 7.24435 30.7556C4.12656 27.6379 2.375 23.4092 2.375 19C2.375 14.5908 4.12656 10.3621 7.24435 7.24435C10.3621 4.12656 14.5908 2.375 19 2.375C23.4092 2.375 27.6379 4.12656 30.7556 7.24435C33.8734 10.3621 35.625 14.5908 35.625 19C35.625 23.4092 33.8734 27.6379 30.7556 30.7556C27.6379 33.8734 23.4092 35.625 19 35.625ZM19 38C24.0391 38 28.8718 35.9982 32.435 32.435C35.9982 28.8718 38 24.0391 38 19C38 13.9609 35.9982 9.12816 32.435 5.56497C28.8718 2.00178 24.0391 0 19 0C13.9609 0 9.12816 2.00178 5.56497 5.56497C2.00178 9.12816 0 13.9609 0 19C0 24.0391 2.00178 28.8718 5.56497 32.435C9.12816 35.9982 13.9609 38 19 38Z" fill="#F4F7FB"/>
<path d="M14.8936 12.0055C15.0879 11.9055 15.3059 11.861 15.5238 11.8769C15.7417 11.8929 15.951 11.9686 16.1286 12.0958L24.4411 18.0333C24.5951 18.1431 24.7205 18.2882 24.8071 18.4563C24.8937 18.6244 24.9388 18.8108 24.9388 18.9999C24.9388 19.189 24.8937 19.3754 24.8071 19.5435C24.7205 19.7117 24.5951 19.8567 24.4411 19.9665L16.1286 25.904C15.9511 26.0311 15.7419 26.1068 15.5241 26.1227C15.3063 26.1386 15.0884 26.0942 14.8942 25.9943C14.7 25.8944 14.5372 25.7429 14.4235 25.5564C14.3099 25.37 14.2498 25.1558 14.25 24.9374V13.0624C14.2498 12.8441 14.3097 12.63 14.4233 12.4435C14.5368 12.2571 14.6996 12.1055 14.8936 12.0055Z" fill="#F4F7FB"/>
</svg>
