<svg width="27" height="27" viewBox="0 0 27 27" fill="none" xmlns="http://www.w3.org/2000/svg">
<path d="M21.375 11.25C22.6462 11.25 23.805 10.8112 24.75 10.1025V20.25C24.75 21.4875 23.7375 22.5 22.5 22.5H4.5C3.2625 22.5 2.25 21.4875 2.25 20.25V6.75C2.25 5.5125 3.2625 4.5 4.5 4.5H15.8625C15.795 4.86 15.75 5.2425 15.75 5.625C15.75 7.29 16.4812 8.76375 17.6287 9.79875L13.5 12.375L5.9625 7.66125C5.85615 7.5876 5.73595 7.5363 5.6092 7.51044C5.48244 7.48459 5.35176 7.48472 5.22506 7.51084C5.09836 7.53695 4.97827 7.5885 4.87207 7.66237C4.76586 7.73624 4.67576 7.83089 4.60719 7.94059C4.53863 8.05029 4.49304 8.17276 4.47318 8.3006C4.45332 8.42843 4.4596 8.55896 4.49165 8.68429C4.52369 8.80963 4.58084 8.92715 4.65962 9.02976C4.73841 9.13237 4.83719 9.21793 4.95 9.28125L12.9038 14.2537C13.2638 14.4788 13.7362 14.4788 14.0962 14.2537L19.4625 10.9012C20.07 11.115 20.7 11.25 21.375 11.25ZM18 5.625C18 7.4925 19.5075 9 21.375 9C23.2425 9 24.75 7.4925 24.75 5.625C24.75 3.7575 23.2425 2.25 21.375 2.25C19.5075 2.25 18 3.7575 18 5.625Z" fill="#F4F7FB"/>
</svg>
