<svg width="43" height="43" viewBox="0 0 43 43" fill="none" xmlns="http://www.w3.org/2000/svg">
<circle opacity="0.15" cx="21.5" cy="21.5" r="21.5" fill="#5E5CE6"/>
<path d="M20.543 11.793C20.7306 11.6056 20.9849 11.5002 21.25 11.5002C21.5152 11.5002 21.7695 11.6056 21.957 11.793L24.457 14.293C24.6445 14.4806 24.7498 14.7349 24.7498 15C24.7498 15.2652 24.6445 15.5195 24.457 15.707L21.957 18.207C21.8648 18.3025 21.7544 18.3787 21.6324 18.4311C21.5104 18.4835 21.3792 18.5111 21.2464 18.5123C21.1137 18.5134 20.982 18.4881 20.8591 18.4379C20.7362 18.3876 20.6245 18.3133 20.5306 18.2194C20.4367 18.1255 20.3625 18.0139 20.3122 17.891C20.2619 17.7681 20.2366 17.6364 20.2378 17.5036C20.2389 17.3709 20.2665 17.2396 20.3189 17.1176C20.3713 16.9956 20.4475 16.8853 20.543 16.793L21.301 16.034C19.9904 16.1658 18.7436 16.6647 17.7038 17.4733C16.664 18.282 15.8735 19.3676 15.4231 20.6055C14.9727 21.8433 14.8807 23.1831 15.1577 24.4709C15.4347 25.7586 16.0694 26.9421 16.9889 27.8853C17.9084 28.8285 19.0754 29.4931 20.3557 29.8028C21.636 30.1124 22.9777 30.0545 24.2266 29.6358C25.4755 29.217 26.5808 28.4544 27.4157 27.4355C28.2506 26.4166 28.781 25.1829 28.946 23.876C28.9594 23.7434 28.9992 23.6148 29.0631 23.4977C29.1269 23.3807 29.2135 23.2776 29.3177 23.1945C29.422 23.1114 29.5418 23.05 29.6701 23.0139C29.7985 22.9778 29.9327 22.9677 30.065 22.9843C30.1973 23.0008 30.3249 23.0436 30.4404 23.1102C30.5559 23.1768 30.6569 23.2658 30.7375 23.372C30.8181 23.4782 30.8767 23.5994 30.9097 23.7286C30.9428 23.8577 30.9497 23.9922 30.93 24.124C30.7171 25.8154 30.0283 27.4116 28.9436 28.7267C27.8588 30.0418 26.4229 31.0218 24.803 31.5526C23.183 32.0835 21.4456 32.1433 19.7929 31.7251C18.1403 31.307 16.6404 30.4281 15.4678 29.1907C14.2952 27.9533 13.4981 26.4083 13.1694 24.7356C12.8407 23.0628 12.9938 21.3311 13.6109 19.742C14.228 18.1529 15.2838 16.7718 16.6553 15.7593C18.0268 14.7468 19.6577 14.1447 21.358 14.023L20.543 13.207C20.3556 13.0195 20.2502 12.7652 20.2502 12.5C20.2502 12.2349 20.3556 11.9806 20.543 11.793Z" fill="#5856D6"/>
<path d="M26.2071 19.793C26.3946 19.9806 26.4999 20.2349 26.4999 20.5C26.4999 20.7652 26.3946 21.0195 26.2071 21.207L21.7071 25.707C21.5196 25.8945 21.2652 25.9998 21.0001 25.9998C20.7349 25.9998 20.4806 25.8945 20.2931 25.707L18.2931 23.707C18.1976 23.6148 18.1214 23.5044 18.069 23.3824C18.0166 23.2604 17.989 23.1292 17.9878 22.9964C17.9867 22.8637 18.012 22.732 18.0623 22.6091C18.1125 22.4862 18.1868 22.3745 18.2807 22.2806C18.3746 22.1867 18.4862 22.1125 18.6091 22.0622C18.732 22.0119 18.8637 21.9866 18.9965 21.9878C19.1293 21.9889 19.2605 22.0165 19.3825 22.0689C19.5045 22.1213 19.6148 22.1975 19.7071 22.293L21.0001 23.586L24.7931 19.793C24.9806 19.6056 25.2349 19.5002 25.5001 19.5002C25.7652 19.5002 26.0196 19.6056 26.2071 19.793Z" fill="#5856D6"/>
</svg>
