<svg width="43" height="43" viewBox="0 0 43 43" fill="none" xmlns="http://www.w3.org/2000/svg">
<circle opacity="0.15" cx="21.5" cy="21.5" r="21.5" fill="#64BC26"/>
<path d="M24.828 24.828C24.0779 25.5779 23.0607 25.9991 22 25.9991C20.9393 25.9991 19.9221 25.5779 19.172 24.828H24.828ZM19 20H19.01H19ZM25 20H25.01H25ZM31 22C31 23.1819 30.7672 24.3522 30.3149 25.4442C29.8626 26.5361 29.1997 27.5282 28.364 28.364C27.5282 29.1997 26.5361 29.8626 25.4442 30.3149C24.3522 30.7672 23.1819 31 22 31C20.8181 31 19.6478 30.7672 18.5558 30.3149C17.4639 29.8626 16.4718 29.1997 15.636 28.364C14.8003 27.5282 14.1374 26.5361 13.6851 25.4442C13.2328 24.3522 13 23.1819 13 22C13 19.6131 13.9482 17.3239 15.636 15.636C17.3239 13.9482 19.6131 13 22 13C24.3869 13 26.6761 13.9482 28.364 15.636C30.0518 17.3239 31 19.6131 31 22Z" stroke="#64BC26" stroke-width="2" stroke-linecap="round" stroke-linejoin="round"/>
</svg>
