<svg width="43" height="43" viewBox="0 0 43 43" fill="none" xmlns="http://www.w3.org/2000/svg">
<circle opacity="0.15" cx="21.5" cy="21.5" r="21.5" fill="#FF453A"/>
<path d="M18 14C17.4696 14 16.9609 14.2107 16.5858 14.5858C16.2107 14.9609 16 15.4696 16 16V21.207C16.3269 21.1145 16.6617 21.0525 17 21.022V16C17 15.7348 17.1054 15.4804 17.2929 15.2929C17.4804 15.1054 17.7348 15 18 15H22V18.5C22 18.8978 22.158 19.2794 22.4393 19.5607C22.7206 19.842 23.1022 20 23.5 20H27V28C27 28.2652 26.8946 28.5196 26.7071 28.7071C26.5196 28.8946 26.2652 29 26 29H22.4C22.218 29.3562 21.9977 29.6915 21.743 30H26C26.5304 30 27.0391 29.7893 27.4142 29.4142C27.7893 29.0391 28 28.5304 28 28V19.414C27.9997 19.0163 27.8414 18.635 27.56 18.354L23.646 14.439C23.3648 14.158 22.9835 14.0001 22.586 14H18ZM26.793 19H23.5C23.3674 19 23.2402 18.9473 23.1464 18.8536C23.0527 18.7598 23 18.6326 23 18.5V15.207L26.793 19ZM22 26.5C22 25.3065 21.5259 24.1619 20.682 23.318C19.8381 22.4741 18.6935 22 17.5 22C16.3065 22 15.1619 22.4741 14.318 23.318C13.4741 24.1619 13 25.3065 13 26.5C13 27.6935 13.4741 28.8381 14.318 29.682C15.1619 30.5259 16.3065 31 17.5 31C18.6935 31 19.8381 30.5259 20.682 29.682C21.5259 28.8381 22 27.6935 22 26.5ZM17.5 28.38C17.6658 28.38 17.8247 28.4458 17.9419 28.5631C18.0592 28.6803 18.125 28.8392 18.125 29.005C18.125 29.1708 18.0592 29.3297 17.9419 29.4469C17.8247 29.5642 17.6658 29.63 17.5 29.63C17.3342 29.63 17.1753 29.5642 17.0581 29.4469C16.9408 29.3297 16.875 29.1708 16.875 29.005C16.875 28.8392 16.9408 28.6803 17.0581 28.5631C17.1753 28.4458 17.3342 28.38 17.5 28.38ZM17.5 23.503C18.531 23.503 19.353 24.349 19.353 25.453C19.353 26.039 19.139 26.361 18.626 26.772L18.349 26.986C18.103 27.18 18.02 27.286 18.003 27.434L17.992 27.59C17.9697 27.7129 17.9023 27.8231 17.8028 27.8988C17.7034 27.9745 17.5793 28.0102 17.4548 27.9989C17.3304 27.9876 17.2147 27.9301 17.1305 27.8378C17.0463 27.7455 16.9998 27.6249 17 27.5C17 26.93 17.21 26.616 17.716 26.212L17.994 25.997C18.282 25.767 18.354 25.655 18.354 25.453C18.354 24.895 17.972 24.503 17.5 24.503C17.006 24.503 16.641 24.869 16.647 25.448C16.6477 25.5137 16.6354 25.5788 16.6109 25.6397C16.5863 25.7006 16.5501 25.7561 16.5041 25.803C16.4581 25.8499 16.4034 25.8873 16.343 25.913C16.2825 25.9388 16.2177 25.9523 16.152 25.953C16.0863 25.9537 16.0212 25.9414 15.9603 25.9169C15.8994 25.8923 15.8439 25.8561 15.797 25.8101C15.7501 25.7641 15.7127 25.7094 15.687 25.649C15.6612 25.5885 15.6477 25.5237 15.647 25.458C15.636 24.321 16.452 23.503 17.5 23.503Z" fill="#EA1601"/>
</svg>
