<svg width="43" height="43" viewBox="0 0 43 43" fill="none" xmlns="http://www.w3.org/2000/svg">
<circle opacity="0.15" cx="21.5" cy="21.5" r="21.5" fill="#FF9F0A"/>
<path d="M19.784 18.284V25.284C19.784 25.694 20.254 25.934 20.584 25.684L25.254 22.184C25.524 21.984 25.524 21.584 25.254 21.384L20.584 17.884C20.5098 17.8283 20.4214 17.7944 20.3289 17.7861C20.2365 17.7777 20.1435 17.7953 20.0604 17.8368C19.9774 17.8784 19.9075 17.9422 19.8587 18.0212C19.8099 18.1002 19.784 18.1912 19.784 18.284ZM20.784 13.014C20.784 12.374 20.194 11.884 19.574 12.024C18.454 12.284 17.394 12.724 16.454 13.324C15.924 13.664 15.844 14.424 16.294 14.874C16.614 15.194 17.124 15.274 17.504 15.034C18.274 14.544 19.124 14.184 20.044 13.984C20.484 13.884 20.784 13.474 20.784 13.014ZM14.884 16.294C14.424 15.844 13.674 15.914 13.334 16.454C12.734 17.394 12.294 18.454 12.034 19.574C11.894 20.194 12.374 20.784 13.014 20.784C13.464 20.784 13.884 20.484 13.974 20.044C14.174 19.134 14.544 18.274 15.024 17.514C15.284 17.124 15.204 16.614 14.884 16.294ZM13.014 22.784C12.374 22.784 11.884 23.374 12.024 23.994C12.284 25.114 12.724 26.164 13.324 27.114C13.664 27.654 14.424 27.724 14.874 27.274C15.194 26.954 15.274 26.444 15.024 26.064C14.534 25.304 14.174 24.454 13.974 23.534C13.884 23.084 13.474 22.784 13.014 22.784ZM16.454 30.234C17.404 30.834 18.454 31.274 19.574 31.534C20.194 31.674 20.784 31.184 20.784 30.554C20.784 30.104 20.484 29.684 20.044 29.594C19.1464 29.3927 18.2905 29.0374 17.514 28.544C17.3244 28.4285 17.1009 28.3813 16.8808 28.4104C16.6606 28.4396 16.4571 28.5432 16.304 28.704C16.1961 28.8059 16.1129 28.9311 16.0609 29.0701C16.0088 29.2091 15.9893 29.3581 16.0038 29.5058C16.0182 29.6535 16.0664 29.796 16.1444 29.9222C16.2225 30.0484 16.3284 30.1551 16.454 30.234ZM31.784 21.784C31.784 26.514 28.484 30.494 24.054 31.524C23.434 31.674 22.834 31.184 22.834 30.544C22.834 30.084 23.144 29.684 23.584 29.574C27.134 28.754 29.784 25.574 29.784 21.784C29.784 17.994 27.134 14.814 23.584 13.994C23.144 13.894 22.834 13.484 22.834 13.024C22.834 12.384 23.434 11.894 24.054 12.044C28.484 13.074 31.784 17.054 31.784 21.784Z" fill="#FF9500"/>
</svg>
