<svg width="43" height="43" viewBox="0 0 43 43" fill="none" xmlns="http://www.w3.org/2000/svg">
<circle opacity="0.15" cx="21.5" cy="21.5" r="21.5" fill="#AF52DE"/>
<path d="M24 21C24 21.55 23.55 22 23 22H14C13.45 22 13 21.55 13 21C13 20.45 13.45 20 14 20H23C23.55 20 24 20.45 24 21ZM13 17C13 17.55 13.45 18 14 18H23C23.55 18 24 17.55 24 17C24 16.45 23.55 16 23 16H14C13.45 16 13 16.45 13 17ZM20 25C20 24.45 19.55 24 19 24H14C13.45 24 13 24.45 13 25C13 25.55 13.45 26 14 26H19C19.55 26 20 25.55 20 25ZM28.01 22.87L28.72 22.16C28.8125 22.0673 28.9224 21.9937 29.0434 21.9436C29.1643 21.8934 29.294 21.8676 29.425 21.8676C29.556 21.8676 29.6856 21.8934 29.8066 21.9436C29.9276 21.9937 30.0375 22.0673 30.13 22.16L30.84 22.87C31.23 23.26 31.23 23.89 30.84 24.28L30.13 24.99L28.01 22.87ZM27.3 23.58L22.14 28.74C22.05 28.83 22 28.95 22 29.09V30.5C22 30.78 22.22 31 22.5 31H23.91C24.04 31 24.17 30.95 24.26 30.85L29.42 25.69L27.3 23.58Z" fill="#AF52DE"/>
</svg>
