<svg width="27" height="27" viewBox="0 0 27 27" fill="none" xmlns="http://www.w3.org/2000/svg">
<path d="M20.4271 18.9923L19.0917 20.313C18.1073 21.2783 16.8305 22.5203 15.26 24.039C14.7879 24.4954 14.157 24.7505 13.5005 24.7505C12.8439 24.7505 12.213 24.4954 11.741 24.039L7.81358 20.2185C7.31971 19.7336 6.90683 19.3253 6.57383 18.9923C5.20399 17.6223 4.27115 15.8769 3.89325 13.9769C3.51535 12.0768 3.70937 10.1073 4.45078 8.31744C5.19219 6.52761 6.44769 4.99782 8.05851 3.92152C9.66934 2.84522 11.5631 2.27075 13.5005 2.27075C15.4378 2.27075 17.3316 2.84522 18.9424 3.92152C20.5532 4.99782 21.8087 6.52761 22.5501 8.31744C23.2915 10.1073 23.4856 12.0768 23.1077 13.9769C22.7298 15.8769 21.7969 17.6223 20.4271 18.9923ZM16.313 12.375C16.313 11.6291 16.0166 10.9137 15.4892 10.3863C14.9617 9.85882 14.2464 9.5625 13.5005 9.5625C12.7545 9.5625 12.0392 9.85882 11.5117 10.3863C10.9843 10.9137 10.688 11.6291 10.688 12.375C10.688 13.1209 10.9843 13.8363 11.5117 14.3637C12.0392 14.8912 12.7545 15.1875 13.5005 15.1875C14.2464 15.1875 14.9617 14.8912 15.4892 14.3637C16.0166 13.8363 16.313 13.1209 16.313 12.375Z" fill="#F4F7FB"/>
</svg>
