<svg width="69" height="77" viewBox="0 0 69 77" fill="none" xmlns="http://www.w3.org/2000/svg">
<path d="M55.467 4.1813C53.071 6.45749 50.2558 8.61387 49.1776 9.03317C47.4405 9.81186 47.3207 9.99156 47.3207 13.0464C47.3207 14.8434 47.4405 16.281 47.6202 16.281C48.5786 16.281 52.5918 14.2444 54.3289 12.9266L56.3056 11.4292V15.0231V18.677H62.2956H68.2855V11.4891C68.2855 3.762 67.7464 1.78532 65.4703 0.767025C62.056 -0.790365 60.1392 -0.13147 55.467 4.1813Z" fill="#F4F7FB"/>
<path d="M13.2379 28.9199C6.2296 44.4938 0.359443 57.5519 0.179745 58.0311C-0.0598539 58.69 0.599042 58.8098 3.65392 58.69L7.42759 58.5103L10.6023 51.6219L13.7171 44.7334L25.8767 44.5537L38.0363 44.4339L41.2709 51.6219L44.5054 58.8098H48.5786H52.6518L49.4172 51.7417C47.6801 47.9081 41.6303 34.85 36.0596 22.6904L25.9366 0.707211L13.2379 28.9199ZM30.4889 27.5422C32.825 32.9332 34.7418 37.5455 34.7418 37.9049C34.7418 38.5039 17.8501 38.6836 17.2511 38.0846C17.0714 37.9049 18.6288 33.8317 20.7852 28.9798C22.9416 24.128 24.9183 19.5157 25.2178 18.737C25.5173 17.9583 25.8767 17.4192 25.9965 17.539C26.1163 17.6588 28.093 22.1513 30.4889 27.5422Z" fill="#F4F7FB"/>
<path fill-rule="evenodd" clip-rule="evenodd" d="M56.9646 44.0746L56.7849 32.2743L56.6052 20.4741H62.3556H68.1059L68.4653 31.6753L68.7648 42.9365L66.0694 50.1244C64.5719 54.0778 63.1343 57.4921 62.9546 57.7916C62.715 58.0312 61.2774 55.0362 59.7799 51.1427L56.9646 44.0746ZM60.301 46.5304L62.8947 52.8199L65.4884 46.5304H60.301Z" fill="#F4F7FB"/>
<path d="M3.62273 69.6912H0.503157V70.2735H1.75386V74.7947H2.37202V70.2735H3.62273V69.6912ZM19.6288 72.6958V69.6912H19.0106V72.6958C19.0106 73.8459 18.4643 74.2843 17.6449 74.2843C16.8255 74.2843 16.2792 73.8459 16.2792 72.6958V69.6912H15.6682V72.6958C15.6682 74.1909 16.4445 74.8666 17.6449 74.8666C18.8525 74.8666 19.6288 74.1909 19.6288 72.6958ZM34.8563 69.6912H31.7368V70.2735H32.9875V74.7947H33.6056V70.2735H34.8563V69.6912ZM49.0703 74.8666C50.5295 74.8666 51.6508 73.6877 51.6508 72.243C51.6508 70.7982 50.5295 69.6194 49.0703 69.6194C47.6184 69.6194 46.4971 70.7982 46.4971 72.243C46.4971 73.6877 47.6184 74.8666 49.0703 74.8666ZM49.0703 74.2843C47.9634 74.2843 47.1152 73.3571 47.1152 72.243C47.1152 71.1288 47.9634 70.2016 49.0703 70.2016C50.1845 70.2016 51.0327 71.1288 51.0327 72.243C51.0327 73.3571 50.1845 74.2843 49.0703 74.2843ZM66.6735 74.7947H67.3779L66.2279 72.9977C66.8532 72.7821 67.342 72.2142 67.342 71.3876C67.342 70.331 66.5441 69.6912 65.6744 69.6912H63.8558V74.7947H64.4668V73.0839H65.5881L66.6735 74.7947ZM64.4668 70.2735H65.6744C66.2351 70.2735 66.731 70.6904 66.731 71.3876C66.731 72.0848 66.2351 72.5017 65.6744 72.5017H64.4668V70.2735Z" fill="#F4F7FB"/>
</svg>
