<svg width="24" height="24" viewBox="0 0 24 24" fill="none" xmlns="http://www.w3.org/2000/svg">
<path d="M21.3558 4.93282L12.3558 1.93282C12.1249 1.85573 11.8751 1.85573 11.6442 1.93282L2.66691 4.92532L2.66213 4.92682L2.64431 4.93282C2.62791 4.93825 2.61225 4.94482 2.59631 4.95091C2.55404 4.96693 2.51278 4.9855 2.47275 5.0065C2.46169 5.01241 2.451 5.01897 2.44013 5.02525C2.42147 5.03594 2.40309 5.04682 2.38519 5.05863C2.37488 5.06529 2.36494 5.07222 2.35491 5.07925C2.33647 5.09219 2.3185 5.10563 2.301 5.11957C2.29256 5.12632 2.28403 5.13288 2.27569 5.13982C2.25481 5.15744 2.23466 5.17579 2.21522 5.19485C2.211 5.19897 2.20659 5.20272 2.20247 5.20685C2.17922 5.23029 2.15703 5.25466 2.13591 5.27997C2.13 5.2871 2.12466 5.29469 2.11884 5.30191C2.10431 5.32029 2.09016 5.33894 2.07684 5.35816C2.06944 5.36866 2.06241 5.37944 2.05547 5.39032C2.04453 5.40719 2.03406 5.42441 2.02406 5.44197C2.01722 5.45388 2.01037 5.46569 2.004 5.47788C1.99406 5.49672 1.98506 5.51613 1.97616 5.53563C1.97128 5.54641 1.96584 5.55691 1.96134 5.56788C1.94925 5.59675 1.93856 5.62629 1.929 5.65629C1.92506 5.66847 1.92187 5.68113 1.91841 5.6935C1.91255 5.71382 1.90727 5.7343 1.90256 5.75491C1.89485 5.79007 1.88881 5.82558 1.88447 5.86132C1.88297 5.87294 1.88128 5.88447 1.88025 5.89619C1.87706 5.9305 1.875 5.9651 1.875 6.00007V13.5001C1.875 13.7984 1.99353 14.0846 2.20451 14.2956C2.41548 14.5065 2.70163 14.6251 3 14.6251C3.29837 14.6251 3.58452 14.5065 3.7955 14.2956C4.00647 14.0846 4.125 13.7984 4.125 13.5001V7.56091L6.34828 8.30201C5.6617 9.61653 5.45563 11.1295 5.76566 12.5798C6.07569 14.03 6.88235 15.3265 8.04638 16.2454C6.45274 16.987 5.09974 18.1617 4.14188 19.6354C4.06117 19.7592 4.00564 19.8976 3.97844 20.0429C3.95124 20.1881 3.95291 20.3372 3.98335 20.4818C4.01379 20.6264 4.07242 20.7635 4.15587 20.8854C4.23932 21.0074 4.34596 21.1117 4.46972 21.1924C4.59347 21.2731 4.73191 21.3286 4.87713 21.3558C5.02235 21.383 5.1715 21.3813 5.31607 21.3509C5.46064 21.3204 5.5978 21.2618 5.71972 21.1784C5.84164 21.0949 5.94592 20.9883 6.02663 20.8645C6.67391 19.87 7.55927 19.0528 8.60239 18.4871C9.64551 17.9214 10.8134 17.6251 12 17.6251C13.1866 17.6251 14.3545 17.9214 15.3976 18.4871C16.4407 19.0528 17.3261 19.87 17.9734 20.8645C18.1364 21.1144 18.392 21.2894 18.6839 21.3508C18.9759 21.4123 19.2803 21.3553 19.5302 21.1923C19.7802 21.0293 19.9551 20.7737 20.0166 20.4818C20.078 20.1898 20.021 19.8854 19.858 19.6354C18.9002 18.1617 17.5472 16.987 15.9536 16.2454C17.1177 15.3265 17.9243 14.03 18.2343 12.5798C18.5444 11.1295 18.3383 9.61653 17.6517 8.30201L21.3558 7.06732C21.5798 6.99264 21.7746 6.84939 21.9126 6.65784C22.0507 6.4663 22.125 6.23618 22.125 6.00007C22.125 5.76396 22.0507 5.53384 21.9126 5.34229C21.7746 5.15075 21.5798 5.00749 21.3558 4.93282ZM12 4.186L17.4425 6.00007L15.5011 6.64713L15.4981 6.64816L12 7.81422L8.50191 6.64816L8.49919 6.64722L6.55763 6.00007L12 4.186ZM16.125 11.2501C16.1251 11.8908 15.976 12.5227 15.6894 13.0957C15.4029 13.6688 14.9868 14.1672 14.4741 14.5514C13.9615 14.9357 13.3663 15.1953 12.7359 15.3096C12.1055 15.4239 11.4571 15.3898 10.8422 15.21C10.2272 15.0301 9.66265 14.7095 9.19315 14.2736C8.72365 13.8376 8.36216 13.2983 8.13733 12.6983C7.9125 12.0984 7.83051 11.4543 7.89786 10.8172C7.96521 10.18 8.18005 9.56731 8.52535 9.02763L11.6442 10.0673C11.8752 10.1443 12.1249 10.1443 12.3558 10.0673L15.4747 9.02763C15.8998 9.69088 16.1255 10.4623 16.125 11.2501Z" fill="#5AC8FA"/>
</svg>
