<svg width="27" height="27" viewBox="0 0 27 27" fill="none" xmlns="http://www.w3.org/2000/svg">
<path d="M23.3508 6.06973L20.5427 3.26426C20.3446 3.0653 20.1091 2.90744 19.8499 2.79975C19.5906 2.69206 19.3126 2.63665 19.0318 2.63672C18.4597 2.63672 17.9218 2.86084 17.5184 3.26426L14.4967 6.28594C14.2977 6.48402 14.1399 6.71947 14.0322 6.97875C13.9245 7.23802 13.8691 7.51602 13.8691 7.79678C13.8691 8.36895 14.0933 8.90684 14.4967 9.31025L16.7063 11.5198C16.189 12.6598 15.47 13.6969 14.5837 14.5811C13.6997 15.4695 12.6627 16.1912 11.5225 16.7115L9.31289 14.502C9.11481 14.303 8.87936 14.1451 8.62008 14.0374C8.36081 13.9298 8.08281 13.8743 7.80205 13.8744C7.22988 13.8744 6.69199 14.0985 6.28858 14.502L3.26426 17.521C3.06506 17.7194 2.90706 17.9553 2.79936 18.2151C2.69167 18.4748 2.63639 18.7533 2.63672 19.0345C2.63672 19.6066 2.86084 20.1445 3.26426 20.5479L6.06709 23.3508C6.71045 23.9968 7.59902 24.3633 8.51133 24.3633C8.70381 24.3633 8.88838 24.3475 9.07031 24.3158C12.6246 23.7305 16.1499 21.8399 18.9949 18.9976C21.8373 16.1578 23.7252 12.6352 24.3185 9.07031C24.4978 7.98135 24.1365 6.86074 23.3508 6.06973Z" fill="#F4F7FB"/>
</svg>
