<svg width="115" height="18" viewBox="0 0 115 18" fill="none" xmlns="http://www.w3.org/2000/svg">
<path d="M9.07895 0L12.165 5.26168L18.1579 6.55038L14.0724 11.091L14.69 17.1491L9.07895 14.6937L3.46785 17.1491L4.08553 11.091L0 6.55038L5.99284 5.26168L9.07895 0Z" fill="#FFCB45"/>
<path d="M33.2895 0L36.3756 5.26168L42.3685 6.55038L38.2829 11.091L38.9006 17.1491L33.2895 14.6937L27.6784 17.1491L28.2961 11.091L24.2106 6.55038L30.2034 5.26168L33.2895 0Z" fill="#FFCB45"/>
<path d="M57.5 0L60.5861 5.26168L66.5789 6.55038L62.4934 11.091L63.1111 17.1491L57.5 14.6937L51.8889 17.1491L52.5065 11.091L48.421 6.55038L54.4139 5.26168L57.5 0Z" fill="#FFCB45"/>
<path d="M81.7105 0L84.7966 5.26168L90.7895 6.55038L86.704 11.091L87.3216 17.1491L81.7105 14.6937L76.0994 17.1491L76.7171 11.091L72.6316 6.55038L78.6244 5.26168L81.7105 0Z" fill="#FFCB45"/>
<path d="M105.921 0L109.007 5.26168L115 6.55038L110.915 11.091L111.532 17.1491L105.921 14.6937L100.31 17.1491L100.928 11.091L96.8422 6.55038L102.835 5.26168L105.921 0Z" fill="#F2F2F2"/>
<path d="M100.31 17.1491L105.921 14.6937V0L102.835 5.26168L96.8422 6.55038L100.928 11.091L100.31 17.1491Z" fill="#FFCB45"/>
</svg>
